<svg xmlns="http://www.w3.org/2000/svg" xmlns:xlink="http://www.w3.org/1999/xlink" version="1.1" id="Layer_1" x="0px" y="0px" width="18.353px" height="18.353px" viewBox="0 0 18.353 18.353" enable-background="new 0 0 18.353 18.353" xml:space="preserve"><path fill="#CCCCCC" d="M18.207 16.086l-5.314-5.315C13.589 9.682 14 8.39 14 7c0-3.866-3.133-7-7-7C3.134 0 0 3.134 0 7s3.134 7 7 7c1.39 0 2.681-0.41 3.77-1.108l5.315 5.315c0.193 0.194 0.512 0.194 0.707 0l1.414-1.414C18.402 16.598 18.402 16.279 18.207 16.086zM7 12c-2.757 0-5-2.243-5-5s2.243-5 5-5c2.757 0 5 2.243 5 5S9.757 12 7 12z"/></svg>